<svg xmlns="http://www.w3.org/2000/svg" xmlns:xlink="http://www.w3.org/1999/xlink" viewBox="0,0,255.98958,255.98958" width="64px" height="64px"><g fill="none" fill-rule="nonzero" stroke="none" stroke-width="none" stroke-linecap="none" stroke-linejoin="none" stroke-miterlimit="10" stroke-dasharray="" stroke-dashoffset="0" font-family="none" font-weight="none" font-size="none" text-anchor="none" style="mix-blend-mode: normal"><g transform="scale(4,4)"><path d="M53,15.522c0,5.615 -4.663,7.478 -10.462,7.478c-5.799,0 -10.538,-1.863 -10.538,-7.478c0,-5.615 2.471,-11.522 10.5,-11.522c8.029,0 10.5,5.907 10.5,11.522z" fill="#16f602" stroke="none" stroke-width="1" stroke-linecap="butt" stroke-linejoin="miter"></path><path d="M42,47l4.202,6.955l2.517,0.169l2.281,1.876l1,3h-6h-9l-3,-7z" fill="#16f602" stroke="none" stroke-width="1" stroke-linecap="butt" stroke-linejoin="miter"></path><path d="M48.314,21.042c0,0 5.686,2.937 5.686,10.958h-2c1.694,1.983 0.91,7.225 0,8c-0.015,0 -1.542,-0.506 -1.542,-0.506c-1.157,3.472 -4.324,7.478 -7.458,8.506h-1l-5,4l0.304,2.128l4.696,0.872l2,4h-3h-12l-1,-1l2,-3l-1,-6l11.169,-24.775z" fill="#16f602" stroke="none" stroke-width="1" stroke-linecap="butt" stroke-linejoin="miter"></path><path d="M33.256,19.745c-17.256,0 -24.256,32.638 -24.256,39.255c5.655,0 37,-9 37,-28c0,-6 -2.912,-7.741 -2.912,-7.741l-2.088,0.741l-5,-2z" fill="#16f602" stroke="none" stroke-width="1" stroke-linecap="butt" stroke-linejoin="miter"></path><path d="M42.519,15.919c-0.005,0 2.082,4.294 6.375,4.294c5.425,0 5.681,-4.272 5.681,-5.693h1.42c0,-2.84 -1.42,-4.26 -1.42,-4.26h1.42c0,0 -1.42,-4.26 -7.101,-4.26c-2.193,0 -4.801,1.646 -5.876,4.026c-0.317,0.703 -0.713,0.708 -1.028,0.007c-1.074,-2.384 -3.685,-4.033 -5.88,-4.033c-5.681,0 -7.101,4.26 -7.101,4.26h1.42c0,0 -1.42,1.42 -1.42,4.26h1.42c0,1.42 0.255,5.693 5.681,5.693c4.292,0 6.38,-4.294 6.375,-4.294" fill="#16f602" stroke="none" stroke-width="1" stroke-linecap="butt" stroke-linejoin="miter"></path><path d="M37,11.026c-0.474,0 -0.904,0.095 -1.284,0.231c-1.06,0.379 -1.716,1.094 -1.716,1.094c0,0 0.541,2.649 3.272,2.649c1.1,0 2.218,-0.67 2.728,-1.325c0,0 -0.222,-0.74 -0.754,-1.439c-0.473,-0.621 -1.19,-1.21 -2.246,-1.21z" fill="#ffeb9b" stroke="none" stroke-width="1" stroke-linecap="butt" stroke-linejoin="miter"></path><path d="M48,11.026c0.474,0 0.904,0.095 1.284,0.231c1.06,0.379 1.716,1.094 1.716,1.094c0,0 -0.541,2.649 -3.272,2.649c-1.1,0 -2.218,-0.67 -2.728,-1.325c0,0 0.222,-0.74 0.754,-1.439c0.473,-0.621 1.19,-1.21 2.246,-1.21z" fill="#ffeb9b" stroke="none" stroke-width="1" stroke-linecap="butt" stroke-linejoin="miter"></path><path d="M33,20c-17.049,0.356 -24,31 -24,39c7,0 37,-11 37,-28c0,-3.816 -1.178,-5.91 -2.035,-6.928" fill="none" stroke="#8d6c9f" stroke-width="2" stroke-linecap="round" stroke-linejoin="round"></path><path d="M51.83,19.622c0,2.378 -5.238,4.378 -9.292,4.378c-3.889,0 -8.895,-1.821 -9.346,-4.087" fill="none" stroke="#8d6c9f" stroke-width="2" stroke-linecap="round" stroke-linejoin="round"></path><path d="M36.046,5.856c1.573,-1.152 3.683,-1.856 6.454,-1.856c2.774,0 4.884,0.705 6.458,1.859" fill="none" stroke="#8d6c9f" stroke-width="2" stroke-linecap="round" stroke-linejoin="round"></path><path d="M42.519,16c-0.005,0 2.082,4.213 6.375,4.213c5.425,0 5.681,-4.272 5.681,-5.693h1.42c0,-2.84 -1.42,-4.26 -1.42,-4.26h1.42c0,0 -1.42,-4.26 -7.101,-4.26c-3.893,0 -6.407,4 -6.407,4c0,0 -2.487,-4 -6.377,-4c-5.681,0 -7.101,4.26 -7.101,4.26h1.42c0,0 -1.42,1.42 -1.42,4.26h1.42c0,1.42 0.255,5.693 5.681,5.693c4.292,0 6.38,-4.213 6.375,-4.213z" fill="none" stroke="#8d6c9f" stroke-width="2" stroke-linecap="round" stroke-linejoin="round"></path><path d="M37,11.026c-0.474,0 -0.904,0.095 -1.284,0.231c-1.06,0.379 -1.716,1.094 -1.716,1.094c0,0 0.541,2.649 3.272,2.649c1.1,0 2.218,-0.67 2.728,-1.325c0,0 -0.222,-0.74 -0.754,-1.439c-0.473,-0.621 -1.19,-1.21 -2.246,-1.21z" fill="none" stroke="#8d6c9f" stroke-width="2" stroke-linecap="round" stroke-linejoin="round"></path><path d="M48,11.026c0.474,0 0.904,0.095 1.284,0.231c1.06,0.379 1.716,1.094 1.716,1.094c0,0 -0.541,2.649 -3.272,2.649c-1.1,0 -2.218,-0.67 -2.728,-1.325c0,0 0.222,-0.74 0.754,-1.439c0.473,-0.621 1.19,-1.21 2.246,-1.21z" fill="none" stroke="#8d6c9f" stroke-width="2" stroke-linecap="round" stroke-linejoin="round"></path><path d="M29.449,52.489l1.157,2.201c-1.365,0.498 -2.606,1.796 -2.606,3.333v0.977h15.956v-0.562c0,-2.451 -1.987,-4.438 -4.438,-4.438h-1.518l-1,-2c0,0 8,-4 13.458,-12.506c0,0 1.527,0.506 1.542,0.506c0.91,-0.775 1.694,-6.017 0,-8h2c0,-5.221 -2.409,-8.288 -4.091,-9.793" fill="none" stroke="#8d6c9f" stroke-width="2" stroke-linecap="round" stroke-linejoin="round"></path><path d="M16.262,51.005c-0.134,0 -0.229,-0.003 -0.275,-0.004c-0.513,-0.019 -0.928,-0.422 -0.962,-0.933c-0.022,-0.335 -0.175,-3.316 1.283,-4.774c0.345,-0.345 0.887,-0.391 1.285,-0.109c0.301,0.213 0.46,0.58 0.413,0.946c-0.055,0.438 -0.025,1.249 0.29,1.563v0c0.336,0.335 1.213,0.357 1.573,0.314c0.361,-0.052 0.733,0.097 0.955,0.405c0.286,0.397 0.242,0.945 -0.104,1.292c-1.19,1.19 -3.606,1.3 -4.458,1.3z" fill="#8d6c9f" stroke="none" stroke-width="1" stroke-linecap="butt" stroke-linejoin="miter"></path><path d="M27.262,40.005c-0.134,0 -0.229,-0.003 -0.275,-0.004c-0.513,-0.019 -0.928,-0.422 -0.962,-0.933c-0.022,-0.335 -0.175,-3.316 1.283,-4.774c0.345,-0.345 0.887,-0.391 1.285,-0.109c0.301,0.213 0.46,0.58 0.413,0.946c-0.055,0.438 -0.025,1.249 0.29,1.563v0c0.336,0.335 1.213,0.357 1.573,0.314c0.361,-0.052 0.733,0.097 0.955,0.405c0.286,0.397 0.242,0.945 -0.104,1.292c-1.19,1.19 -3.606,1.3 -4.458,1.3z" fill="#8d6c9f" stroke="none" stroke-width="1" stroke-linecap="butt" stroke-linejoin="miter"></path><path d="M22.256,34.999c-0.134,0 -0.229,-0.003 -0.275,-0.004c-0.513,-0.019 -0.928,-0.422 -0.962,-0.933c-0.022,-0.335 -0.175,-3.316 1.283,-4.774c0.345,-0.345 0.887,-0.391 1.285,-0.109c0.301,0.213 0.46,0.58 0.413,0.946c-0.055,0.438 -0.025,1.249 0.29,1.563v0c0.336,0.335 1.213,0.357 1.573,0.314c0.361,-0.052 0.733,0.097 0.955,0.405c0.286,0.397 0.242,0.945 -0.104,1.292c-1.189,1.19 -3.605,1.3 -4.458,1.3z" fill="#8d6c9f" stroke="none" stroke-width="1" stroke-linecap="butt" stroke-linejoin="miter"></path><path d="M32.242,44.985c-0.134,0 -0.229,-0.003 -0.275,-0.004c-0.513,-0.019 -0.928,-0.422 -0.962,-0.933c-0.022,-0.335 -0.175,-3.316 1.283,-4.774c0.345,-0.345 0.887,-0.391 1.285,-0.109c0.301,0.213 0.46,0.58 0.413,0.946c-0.055,0.438 -0.025,1.249 0.29,1.563v0c0.336,0.335 1.213,0.357 1.573,0.314c0.361,-0.052 0.733,0.097 0.955,0.405c0.286,0.397 0.242,0.945 -0.104,1.292c-1.189,1.19 -3.605,1.3 -4.458,1.3z" fill="#8d6c9f" stroke="none" stroke-width="1" stroke-linecap="butt" stroke-linejoin="miter"></path><path d="M18.262,43.005c-0.134,0 -0.229,-0.003 -0.275,-0.004c-0.513,-0.019 -0.928,-0.422 -0.962,-0.933c-0.022,-0.335 -0.175,-3.316 1.283,-4.774c0.345,-0.345 0.887,-0.391 1.285,-0.109c0.301,0.213 0.46,0.58 0.413,0.946c-0.055,0.438 -0.025,1.249 0.29,1.563v0c0.336,0.335 1.213,0.357 1.573,0.314c0.361,-0.052 0.733,0.097 0.955,0.405c0.286,0.397 0.242,0.945 -0.104,1.292c-1.19,1.19 -3.606,1.3 -4.458,1.3z" fill="#8d6c9f" stroke="none" stroke-width="1" stroke-linecap="butt" stroke-linejoin="miter"></path><path d="M24.262,49.005c-0.134,0 -0.229,-0.003 -0.275,-0.004c-0.513,-0.019 -0.928,-0.422 -0.962,-0.933c-0.022,-0.335 -0.175,-3.316 1.283,-4.774c0.345,-0.345 0.887,-0.391 1.285,-0.109c0.301,0.213 0.46,0.58 0.413,0.946c-0.055,0.438 -0.025,1.249 0.29,1.563v0c0.336,0.335 1.213,0.357 1.573,0.314c0.361,-0.052 0.733,0.097 0.955,0.405c0.286,0.397 0.242,0.945 -0.104,1.292c-1.19,1.19 -3.606,1.3 -4.458,1.3z" fill="#8d6c9f" stroke="none" stroke-width="1" stroke-linecap="butt" stroke-linejoin="miter"></path><path d="M42.5,21.003c-0.284,0 -0.555,-0.121 -0.745,-0.333c-0.527,-0.589 -1.755,-2.077 -1.755,-3.17c0,-1.378 1.121,-2.5 2.5,-2.5c1.379,0 2.5,1.122 2.5,2.5c0,1.093 -1.228,2.581 -1.755,3.17c-0.19,0.212 -0.461,0.333 -0.745,0.333z" fill="#8d6c9f" stroke="none" stroke-width="1" stroke-linecap="butt" stroke-linejoin="miter"></path><path d="M34,59h13h5v-0.562c0,-2.451 -1.987,-4.438 -4.438,-4.438h-0.562h-1l-3,-6" fill="none" stroke="#8d6c9f" stroke-width="2" stroke-linecap="round" stroke-linejoin="round"></path><path d="M40,55l2,4h1.956l-0.956,-3.258z" fill="#8d6c9f" stroke="none" stroke-width="1" stroke-linecap="butt" stroke-linejoin="miter"></path><path d="M48,55l2,4h1.956l-0.956,-3.258z" fill="#8d6c9f" stroke="none" stroke-width="1" stroke-linecap="butt" stroke-linejoin="miter"></path></g></g></svg>